<?xml version="1.0" encoding="utf-8"?>
<svg version="1.1" xmlns="http://www.w3.org/2000/svg" xmlns:xlink="http://www.w3.org/1999/xlink" x="0px" y="0px"
	 width="34px" height="20px" viewBox="0 0 34 20" style="enable-background:new 0 0 34 20;" xml:space="preserve">
<path d="M27.3,6.3c-0.8,0-1.4,0.1-2.1,0.4L22.8,1h3.5c0.6,0.2,0.9,0.7,1,1.2c0,0.9-0.7,1.4-1.3,1.4c-0.3,0-0.5,0.2-0.5,0.5
	s0.2,0.5,0.5,0.5c1.2,0,2.3-1.1,2.3-2.4c-0.1-1-0.9-1.8-1.8-2h-0.1h-4.3c-0.2,0-0.3,0.1-0.4,0.2s-0.1,0.3,0,0.5l1,2.8h-11l-0.7-1.6
	H13c0.3,0,0.5-0.2,0.5-0.5S13.3,0.9,13,0.9H9c-0.3,0-0.5,0.2-0.5,0.5S8.7,1.8,9,1.8h1.1L11,4L9.5,6.9C8.6,6.5,7.7,6.3,6.7,6.3
	C3,6.3,0,9.4,0,13.1S3,20,6.7,20c3.5,0,6.5-2.8,6.7-6.3h1.7c0.1,0,0.1,0,0.2,0l0,0c0,0,0,0,0.1,0c0,0,0.1,0,0.1-0.1l0,0l7.8-8.8
	l0.9,2.2c-2.2,1.2-3.7,3.5-3.7,6.1c0,3.8,3,6.9,6.7,6.9s6.7-3.1,6.7-6.9C33.9,9.4,31,6.3,27.3,6.3z M6.7,19c-3.2,0-5.8-2.6-5.8-5.9
	s2.6-5.9,5.8-5.9c0.8,0,1.5,0.2,2.3,0.5L6.3,13c-0.1,0.2-0.1,0.3,0,0.5s0.3,0.2,0.4,0.2h5.9C12.3,16.7,9.8,19,6.7,19z M9.9,8.2
	c1.5,1,2.6,2.6,2.7,4.5H7.4L9.9,8.2z M13.5,12.8c-0.2-2.3-1.4-4.3-3.2-5.4l1.1-2.2l3,7.6C14.4,12.8,13.5,12.8,13.5,12.8z M15.4,12.4
	l-3.1-7.9h10.2L15.4,12.4z M27.3,19c-3.2,0-5.8-2.6-5.8-5.9c0-2.3,1.2-4.3,3.1-5.2l2.2,5.4c0.1,0.2,0.3,0.3,0.5,0.3
	c0.1,0,0.1,0,0.2,0c0.3-0.1,0.4-0.4,0.3-0.7l-2.2-5.4c0.6-0.2,1.1-0.3,1.8-0.3c3.1,0,5.8,2.6,5.8,5.9C33.1,16.4,30.5,19,27.3,19z"/>
</svg>
