<?xml version="1.0" encoding="utf-8"?>
<svg version="1.1" xmlns="http://www.w3.org/2000/svg" xmlns:xlink="http://www.w3.org/1999/xlink" x="0px" y="0px"
	 width="35.7px" height="20.7px" viewBox="0 0 35.7 20.7" style="enable-background:new 0 0 35.7 20.7;" xml:space="preserve">
<path d="M28.7,6.5c-0.8,0-1.5,0.1-2.2,0.4L24,1h3.7c0.6,0.2,1,0.7,1.1,1.2c0,0.9-0.7,1.4-1.4,1.4
	c-0.3,0-0.5,0.2-0.5,0.5s0.2,0.5,0.5,0.5c1.3,0,2.4-1.1,2.4-2.5c-0.1-1-0.9-1.9-1.9-2.1c0,0-0.1,0-0.1,0h-4.5
	c-0.2,0-0.3,0.1-0.4,0.2c-0.1,0.1-0.1,0.3,0,0.5L24,3.6H12.4l-0.7-1.7h2c0.3,0,0.5-0.2,0.5-0.5S14,0.9,13.7,0.9H9.5
	C9.2,0.9,9,1.1,9,1.4s0.2,0.5,0.5,0.5h1.2l0.9,2.2l-1.6,3C9.1,6.7,8.1,6.5,7.1,6.5C3.2,6.5,0,9.7,0,13.6c0,3.9,3.2,7.1,7.1,7.1
	c3.7,0,6.8-2.9,7.1-6.5H16c0.1,0,0.1,0,0.2,0c0,0,0,0,0,0c0,0,0,0,0.1,0c0,0,0.1,0,0.1-0.1c0,0,0,0,0,0L24.6,5l0.9,2.3
	c-2.3,1.2-3.9,3.6-3.9,6.3c0,3.9,3.2,7.1,7.1,7.1c3.9,0,7.1-3.2,7.1-7.1C35.7,9.7,32.6,6.5,28.7,6.5z M7.1,19.7
	C3.7,19.7,1,17,1,13.6c0-3.4,2.7-6.1,6.1-6.1c0.8,0,1.6,0.2,2.4,0.5l-2.9,5.5c-0.1,0.2-0.1,0.3,0,0.5c0.1,0.2,0.3,0.2,0.4,0.2h6.2
	C12.9,17.3,10.3,19.7,7.1,19.7z M10.4,8.5c1.6,1,2.7,2.7,2.8,4.7H7.8L10.4,8.5z M14.2,13.2c-0.2-2.4-1.5-4.4-3.4-5.6L12,5.3l3.2,7.9
	H14.2z M16.2,12.8l-3.3-8.2h10.7L16.2,12.8z M28.7,19.7c-3.4,0-6.1-2.7-6.1-6.1c0-2.4,1.3-4.4,3.3-5.4l2.3,5.6
	c0.1,0.2,0.3,0.3,0.5,0.3c0.1,0,0.1,0,0.2,0c0.3-0.1,0.4-0.4,0.3-0.7l-2.3-5.6c0.6-0.2,1.2-0.3,1.9-0.3c3.3,0,6.1,2.7,6.1,6.1
	C34.8,17,32.1,19.7,28.7,19.7z"/>
</svg>
