<?xml version="1.0" encoding="utf-8"?>
<svg version="1.1" xmlns="http://www.w3.org/2000/svg" xmlns:xlink="http://www.w3.org/1999/xlink" x="0px" y="0px"
     width="16px" height="20px" viewBox="0 0 16 20" style="enable-background:new 0 0 16 20;" xml:space="preserve">
<path d="M7.6,15.8C7.7,15.9,7.9,16,8,16s0.3-0.1,0.4-0.2l4.4-4.5c0.2-0.2,0.2-0.6,0-0.8c-0.2-0.2-0.6-0.2-0.8,0l-3.5,3.5V0.6
	C8.6,0.3,8.3,0,8,0S7.4,0.3,7.4,0.6v13.5L4,10.5c-0.2-0.2-0.6-0.2-0.8,0c-0.2,0.2-0.2,0.6,0,0.8L7.6,15.8z"/>
<path d="M15.5,19H0.5C0.2,19,0,19.2,0,19.5S0.2,20,0.5,20h14.9c0.3,0,0.5-0.2,0.5-0.5S15.8,19,15.5,19z"/>
</svg>
