<?xml version="1.0" encoding="utf-8"?>
<svg version="1.1" xmlns="http://www.w3.org/2000/svg" xmlns:xlink="http://www.w3.org/1999/xlink" x="0px" y="0px"
	 width="17.7px" height="15.3px" viewBox="0 0 17.7 15.3" xml:space="preserve">
<path d="M8.9,13.9c2.8-2.8,6.6-6.4,7-6.8c0.5-0.7,0.8-1.5,0.8-2.4C16.7,2.7,15,1,13,1c-1.4,0-2.6,0.7-3.2,1.9
	C9.5,3.3,9.2,3.5,8.8,3.5c0,0,0,0,0,0C8.5,3.5,8.1,3.3,8,2.9C7.3,1.7,6.1,1,4.7,1C2.7,1,1,2.7,1,4.7c0,0.9,0.3,1.7,0.9,2.4
	C2.2,7.4,6,11.1,8.9,13.9 M8.9,15.3c0,0-7.6-7.3-7.8-7.5C0.4,6.9,0,5.9,0,4.7C0,2.1,2.1,0,4.7,0C6.5,0,8,1,8.8,2.5
	C9.6,1,11.2,0,13,0c2.6,0,4.7,2.1,4.7,4.7c0,1.1-0.4,2.2-1.1,3h0l0,0C16.4,8,8.9,15.3,8.9,15.3z"/>
</svg>
