<?xml version="1.0" encoding="utf-8"?>
<svg version="1.1" id="Layer_1" xmlns="http://www.w3.org/2000/svg" xmlns:xlink="http://www.w3.org/1999/xlink" x="0px" y="0px"
     width="25.5px" height="26px" viewBox="0 0 25.5 26" style="enable-background:new 0 0 25.5 26;" xml:space="preserve">
<path d="M15.4,3.8c-0.1-0.1-0.1-0.2-0.1-0.3c-0.1,0.1-0.1,0.1-0.2,0.2c-0.6,0.4-1.3,0.6-2.2,0.6c-0.8,0-1.6-0.2-2.2-0.6
	c-0.1-0.1-0.2-0.2-0.3-0.2v0.7c0,0.8,0.6,1.3,1.4,1.5c0.3,0.1,0.7,0.1,1.1,0.1s0.7,0,1.1-0.1c0.8-0.2,1.4-0.7,1.4-1.5L15.4,3.8
	L15.4,3.8z M12.9,6.7c0.8,0,1.6,0.2,2.2,0.6c0.6,0.4,1,0.9,1,1.5C16,8.9,16,9,16,9v1.7c0,1.1-0.8,1.8-1.9,2.1
	C13.7,13,13.3,13,12.9,13c-0.4,0-0.9-0.1-1.2-0.2c-1.1-0.3-1.9-1-1.9-2.1V9c0,0,0,0,0-0.1c0-0.1,0-0.1,0-0.2c0-0.6,0.4-1.2,1-1.5
	C11.3,6.9,12,6.7,12.9,6.7L12.9,6.7z M15.4,10.1c-0.1,0.1-0.2,0.2-0.3,0.2c-0.6,0.4-1.3,0.6-2.2,0.6s-1.6-0.2-2.2-0.6
	c-0.1-0.1-0.2-0.2-0.3-0.2v0.7c0,0.8,0.6,1.3,1.4,1.5c0.3,0.1,0.7,0.1,1.1,0.1c0.4,0,0.7,0,1.1-0.1c0.8-0.2,1.4-0.7,1.4-1.5
	L15.4,10.1L15.4,10.1z M14.7,7.8c-0.5-0.3-1.1-0.5-1.8-0.5c-0.7,0-1.4,0.2-1.8,0.5c-0.4,0.3-0.7,0.6-0.7,1c0,0.4,0.3,0.7,0.7,1
	c0.5,0.3,1.1,0.5,1.8,0.5c0.7,0,1.4-0.2,1.8-0.5c0.4-0.2,0.6-0.5,0.7-0.8V8.9c0,0,0-0.1,0-0.1v0C15.4,8.4,15.1,8.1,14.7,7.8
	L14.7,7.8z M6.4,3.5c0.7,0,1.3,0.1,1.8,0.4c0,0,0.1,0,0.1-0.1l1.3-0.8c0,0,0.1,0,0.1,0V2.3c0,0,0,0,0-0.1c0-0.1,0-0.1,0-0.2
	c0-0.6,0.4-1.2,1-1.5C11.2,0.2,12,0,12.9,0s1.6,0.2,2.2,0.6c0.6,0.4,1,0.9,1,1.5c0,0.1,0,0.2,0,0.2v0.8l1.4,0.8c0,0,0.1,0,0.1,0.1
	c0.6-0.3,1.3-0.6,2.2-0.6c0.8,0,1.6,0.2,2.2,0.6c0.6,0.4,1,0.9,1,1.5c0,0.1,0,0.2,0,0.2v1.1c0,0,0.1,0,0.1,0l2.3,1.3
	c0.1,0,0.2,0.1,0.2,0.2c0,0.1,0.1,0.2,0.1,0.2h0v9.6c0,0.2-0.1,0.3-0.2,0.4l-12.2,7.3C13,26,13,26,12.9,26c0,0,0,0,0,0
	c-0.1,0-0.2,0-0.3-0.1L0.2,18.7C0.1,18.6,0,18.4,0,18.3l0.1-9.4c0-0.1,0-0.2,0.1-0.3c0-0.1,0.1-0.2,0.2-0.2l2.6-1.5
	c0,0,0.1,0,0.1-0.1V5.9c0,0,0,0,0-0.1c0-0.1,0-0.1,0-0.2c0-0.6,0.4-1.2,1-1.5C4.7,3.8,5.5,3.5,6.4,3.5L6.4,3.5z M9,4.5
	c0.3,0.3,0.5,0.7,0.5,1.2c0,0.1,0,0.2,0,0.2v1.7c0,1.1-0.8,1.8-1.9,2.1C7.2,9.8,6.8,9.9,6.3,9.9c-0.4,0-0.9-0.1-1.2-0.2
	c-1-0.3-1.8-0.9-1.9-1.9L1.6,8.8l11.3,6.3l11.2-6.5l-1.3-0.7c-0.2,0.9-0.9,1.4-1.9,1.7c-0.4,0.1-0.8,0.2-1.2,0.2
	c-0.4,0-0.9-0.1-1.2-0.2c-1.1-0.3-1.9-1-1.9-2.1V5.8c0,0,0,0,0-0.1c0-0.1,0-0.1,0-0.2c0-0.3,0.1-0.6,0.3-0.9L16,4.2
	c-0.1,1-0.9,1.7-1.9,2c-0.4,0.1-0.8,0.2-1.2,0.2S12,6.3,11.6,6.2c-1.1-0.3-1.9-1-1.9-2.1L9,4.5L9,4.5z M8.9,7C8.8,7,8.7,7.1,8.5,7.2
	C8,7.6,7.2,7.8,6.4,7.8S4.7,7.6,4.2,7.2C4.1,7.1,3.9,7,3.8,6.9v0.7c0,0.8,0.6,1.3,1.4,1.5C5.6,9.2,6,9.2,6.3,9.2
	c0.4,0,0.7,0,1.1-0.1c0.8-0.2,1.4-0.7,1.4-1.5L8.9,7L8.9,7z M8.2,4.7C7.7,4.4,7.1,4.2,6.4,4.2C5.6,4.2,5,4.4,4.5,4.7
	c-0.4,0.3-0.7,0.6-0.7,1c0,0.4,0.3,0.7,0.7,1C5,6.9,5.6,7.1,6.4,7.1c0.7,0,1.4-0.2,1.8-0.5c0.4-0.2,0.6-0.5,0.7-0.8V5.8
	c0,0,0-0.1,0-0.1v0C8.9,5.3,8.6,4.9,8.2,4.7L8.2,4.7z M22.2,6.8C22.1,6.9,22,7,21.9,7.1c-0.6,0.4-1.3,0.6-2.2,0.6
	c-0.8,0-1.6-0.2-2.2-0.6c-0.1-0.1-0.2-0.2-0.3-0.2v0.7c0,0.8,0.6,1.3,1.4,1.5c0.3,0.1,0.7,0.1,1.1,0.1c0.4,0,0.7,0,1.1-0.1
	c0.8-0.2,1.4-0.7,1.4-1.5L22.2,6.8L22.2,6.8z M21.5,4.5c-0.5-0.3-1.1-0.5-1.8-0.5c-0.7,0-1.4,0.2-1.8,0.5c-0.4,0.3-0.7,0.6-0.7,1
	s0.3,0.7,0.7,1C18.3,6.8,19,7,19.7,7c0.7,0,1.4-0.2,1.8-0.5c0.4-0.2,0.6-0.5,0.7-0.8V5.6c0,0,0-0.1,0-0.1v0
	C22.2,5.2,22,4.8,21.5,4.5L21.5,4.5z M15.4,2.3L15.4,2.3c0-0.1,0-0.1,0-0.2v0c0-0.4-0.3-0.7-0.7-1c-0.5-0.3-1.1-0.5-1.8-0.5
	c-0.7,0-1.4,0.2-1.8,0.5c-0.4,0.3-0.7,0.6-0.7,1s0.3,0.7,0.7,1c0.5,0.3,1.1,0.5,1.8,0.5c0.7,0,1.4-0.2,1.8-0.5
	C15.1,2.9,15.3,2.6,15.4,2.3L15.4,2.3z M13.3,15.9v8.8l11.2-6.8V9.4L13.3,15.9L13.3,15.9z M12.4,24.7v-8.8L1.1,9.6L1,18L12.4,24.7
	L12.4,24.7z"/>
</svg>
