<?xml version="1.0" encoding="utf-8"?>
<svg version="1.1" xmlns="http://www.w3.org/2000/svg" xmlns:xlink="http://www.w3.org/1999/xlink" x="0px" y="0px"
	 width="37.8px" height="26.5px" viewBox="0 0 37.8 26.5" style="enable-background:new 0 0 37.8 26.5;" xml:space="preserve">
<path d="M37.7,12.9L33.5,1.5c-0.4-1.2-1.7-1.8-2.9-1.3l-6.4,2.3l0,0l-0.9,0.3l0,0L1.5,10.7c-0.6,0.2-1,0.6-1.3,1.2
	s-0.3,1.1-0.1,1.7l4.2,11.4c0.2,0.6,0.6,1,1.2,1.3c0.3,0.1,0.6,0.2,0.9,0.2c0.3,0,0.5,0,0.8-0.1l22.6-8.2l0.1,0l0,0l6.4-2.3
	C37.5,15.3,38.1,14.1,37.7,12.9z M6.8,25.4c-0.3,0.1-0.6,0.1-0.9,0c-0.3-0.1-0.5-0.4-0.6-0.7L1.1,13.3C1,13,1,12.6,1.1,12.3
	c0.1-0.3,0.4-0.5,0.7-0.6l21.8-7.9l5,13.8L6.8,25.4z M36,14.8l-6.4,2.3l-5-13.8L31,1.1c0.6-0.2,1.3,0.1,1.6,0.7l4.2,11.4
	C36.9,13.9,36.6,14.6,36,14.8z"/>
<path d="M13,17c0-0.1-0.1-0.2-0.1-0.3l-1.8-4.8c-0.1-0.2-0.2-0.3-0.3-0.3c-0.2,0-0.3,0-0.5,0.1l-4.3,3.7
	c-0.2,0.1-0.2,0.4-0.1,0.5l1.4,3.7c-0.1,0-0.3,0-0.4,0.1c0,0,0,0,0,0c-0.8,0.3-1.2,1.2-0.9,1.9c0.1,0.4,0.4,0.7,0.8,0.8
	c0.2,0.1,0.4,0.1,0.6,0.1c0.2,0,0.3,0,0.5-0.1c0.4-0.1,0.7-0.4,0.9-0.8c0.2-0.4,0.2-0.8,0.1-1.2c-0.1-0.2-0.2-0.3-0.3-0.5L7,15.9
	l3.5-3l1.1,3.1c-0.2,0-0.3,0-0.5,0.1c0,0,0,0,0,0c-0.8,0.3-1.2,1.2-0.9,1.9c0.2,0.6,0.8,1,1.4,1c0.2,0,0.3,0,0.5-0.1
	c0.4-0.1,0.7-0.4,0.9-0.8C13.2,17.8,13.2,17.4,13,17z M7.8,21.4c-0.1,0.1-0.2,0.2-0.3,0.3c-0.1,0-0.3,0-0.4,0
	c-0.1-0.1-0.2-0.2-0.3-0.3c-0.1-0.3,0-0.6,0.3-0.6c0.3-0.1,0.6,0,0.6,0.3C7.9,21.1,7.9,21.3,7.8,21.4z M12.1,17.4c0,0.1,0,0.3,0,0.4
	C12,17.9,11.9,18,11.8,18c-0.3,0.1-0.6,0-0.6-0.3c-0.1-0.3,0-0.6,0.3-0.6c0.2-0.1,0.4,0,0.5,0.1"/>
<circle id="Ellipse_14" cx="29.5" cy="5.1" r="0.6"/>
<circle id="Ellipse_15" cx="30.9" cy="8.9" r="0.6"/>
<circle id="Ellipse_16" cx="32.3" cy="12.7" r="0.6"/>
<path d="M14.9,13.3c-0.2,0-0.4-0.1-0.5-0.3c-0.1-0.3,0-0.5,0.3-0.6l7.8-2.8c0.3-0.1,0.5,0,0.6,0.3
	c0.1,0.3,0,0.5-0.3,0.6l-7.8,2.8C15.1,13.3,15,13.3,14.9,13.3z"/>
<path d="M16.3,16.7c-0.2,0-0.4-0.1-0.5-0.3c-0.1-0.3,0-0.5,0.3-0.6l5.1-1.8c0.3-0.1,0.5,0,0.6,0.3s0,0.5-0.3,0.6
	l-5.1,1.8C16.4,16.7,16.4,16.7,16.3,16.7z"/>
</svg>
