<?xml version="1.0" encoding="utf-8"?>
<svg version="1.1" xmlns="http://www.w3.org/2000/svg" xmlns:xlink="http://www.w3.org/1999/xlink" x="0px" y="0px"
	 width="25.3px" height="25.3px" viewBox="0 0 25.3 25.3" style="enable-background:new 0 0 25.3 25.3;" xml:space="preserve">
<path d="M12.7,1c6.4,0,11.7,5.2,11.7,11.7s-5.2,11.7-11.7,11.7S1,19.1,1,12.7S6.2,1,12.7,1 M12.7,0C5.7,0,0,5.7,0,12.7
	s5.7,12.7,12.7,12.7s12.7-5.7,12.7-12.7S19.7,0,12.7,0L12.7,0z"/>
<path d="M12.7,10.2c1.4,0,2.5,1.1,2.5,2.5s-1.1,2.5-2.5,2.5s-2.5-1.1-2.5-2.5S11.3,10.2,12.7,10.2 M12.7,9.2
	c-1.9,0-3.5,1.6-3.5,3.5s1.6,3.5,3.5,3.5s3.5-1.6,3.5-3.5S14.6,9.2,12.7,9.2L12.7,9.2z"/>
<circle cx="12.7" cy="12.7" r="0.5"/>
<path d="M17,8.8c-0.1,0-0.3-0.1-0.4-0.2c-1-1-2.4-1.6-3.9-1.6c-0.3,0-0.5-0.2-0.5-0.5S12.4,6,12.7,6
	c1.8,0,3.5,0.7,4.7,2c0.2,0.2,0.2,0.5,0,0.7C17.2,8.8,17.1,8.8,17,8.8z"/>
<path d="M19.1,6.7c-0.1,0-0.3,0-0.4-0.1c-1.6-1.6-3.7-2.5-6-2.5c-0.3,0-0.5-0.2-0.5-0.5s0.2-0.5,0.5-0.5
	c2.6,0,5,1,6.8,2.7c0.2,0.2,0.2,0.5,0,0.7C19.4,6.7,19.2,6.7,19.1,6.7z"/>
<path d="M12.6,19.3c-1.8,0-3.5-0.7-4.7-2c-0.2-0.2-0.2-0.5,0-0.7c0.2-0.2,0.5-0.2,0.7,0c1,1,2.4,1.6,3.9,1.6
	c0.3,0,0.5,0.2,0.5,0.5S12.9,19.3,12.6,19.3z"/>
<path d="M12.6,22.3c-2.6,0-5-1-6.8-2.7c-0.2-0.2-0.2-0.5,0-0.7s0.5-0.2,0.7,0c1.6,1.6,3.7,2.5,6,2.5
	c0.3,0,0.5,0.2,0.5,0.5S12.9,22.3,12.6,22.3z"/>
</svg>
